<svg xmlns="http://www.w3.org/2000/svg" viewBox="0 0 48 48" role="img" aria-labelledby="title desc">
  <title id="title">Bastion compact B mark</title>
  <desc id="desc">A compact navy rounded square with a gold Bastion B.</desc>
  <rect width="48" height="48" rx="14" fill="#10284b"/>
  <path fill="#5dd6a9" fill-opacity="0.2" d="M0 0h48v18c-12 7-28 7-48 0z"/>
  <path fill="#d6a94f" d="M17 12.5h8.1c5 0 8.1 2.5 8.1 6.5 0 2.2-1 4-2.9 5.1 2.6 1.1 4.1 3.2 4.1 6 0 4.7-3.6 7.4-9.3 7.4H17zm7.6 9.8c1.9 0 3.1-.9 3.1-2.5s-1.2-2.5-3.1-2.5h-2.3v5zm.4 10.5c2.4 0 3.8-1.1 3.8-3s-1.4-3-3.8-3h-2.7v6z"/>
</svg>
